<svg width="84" height="84" viewBox="0 0 84 84" fill="none" xmlns="http://www.w3.org/2000/svg">
<path d="M10 42.0003H10.0094C10.0094 50.8419 13.5885 58.8413 19.3738 64.6266C25.1591 70.4115 33.1585 73.9906 41.999 73.9906V74H42V73.9906C50.8405 73.9906 58.8409 70.4115 64.6262 64.6261C70.4115 58.8407 73.9906 50.8413 73.9906 42.0008H74V41.9997H73.9906C73.9906 33.1587 70.411 25.1593 64.6262 19.3734C58.8404 13.5885 50.842 10.0094 42.001 10.0094V10H42V10.0094C33.159 10.0094 25.1591 13.5885 19.3738 19.3739C13.5885 25.1593 10.0094 33.1587 10.0094 41.9992H10V42.0003ZM32.1246 47.3434C31.1028 48.3372 29.4679 48.3148 28.4742 47.2924C27.4799 46.2705 27.5028 44.6357 28.5247 43.6419L40.2542 32.2675L42.0542 34.118L40.2521 32.2592C41.2787 31.2639 42.9172 31.2894 43.913 32.3154C43.9416 32.3457 43.9698 32.3753 43.9963 32.4066L55.4836 43.6424C56.506 44.6362 56.5284 46.2711 55.5347 47.2929C54.5409 48.3153 52.9061 48.3377 51.8837 47.344L42.0464 37.7222L32.1246 47.3434Z" fill="#3F3D56"/>
<path d="M32.1246 47.3434C31.1028 48.3372 29.4679 48.3148 28.4742 47.2924C27.4799 46.2705 27.5028 44.6357 28.5247 43.6419L40.2542 32.2675L42.0542 34.118L40.2521 32.2592C41.2787 31.2639 42.9172 31.2894 43.913 32.3154C43.9416 32.3457 43.9698 32.3753 43.9963 32.4066L55.4836 43.6424C56.506 44.6362 56.5284 46.2711 55.5347 47.2929C54.5409 48.3153 52.9061 48.3377 51.8837 47.344L42.0464 37.7222L32.1246 47.3434Z" fill="white"/>
</svg>
