<svg width="48" height="48" viewBox="0 0 48 48" fill="none" xmlns="http://www.w3.org/2000/svg">
<path d="M35.5446 33.5532C35.8182 33.8268 35.8183 34.2707 35.5446 34.5446C35.5445 34.5446 35.5445 34.5446 35.5445 34.5447C35.2707 34.8185 34.8268 34.8185 34.553 34.5446L24.1765 24.1682L23.9997 23.9914L23.8229 24.1682L13.4466 34.5446L13.4466 34.5447C13.173 34.8184 12.7291 34.8185 12.4552 34.5446C12.1816 34.271 12.1815 33.8271 12.4553 33.5532L22.8317 23.1766L23.0085 22.9998L22.8317 22.823L12.4552 12.4468C12.4552 12.4468 12.4552 12.4468 12.4552 12.4468C12.1816 12.1731 12.1815 11.7292 12.4553 11.4553C12.7289 11.1816 13.1727 11.1815 13.4466 11.4554L23.8231 21.8318L23.9999 22.0086L24.1767 21.8318L34.5532 11.4554L34.5532 11.4553C34.8268 11.1816 35.2706 11.1815 35.5448 11.4554C35.8184 11.7291 35.8184 12.1731 35.5448 12.4468L25.1679 22.823L24.9911 22.9998L25.1679 23.1766L35.5446 33.5532Z" fill="#3F3D56" stroke="#3F3D56" stroke-width="0.5"/>
</svg>
