<svg width="48" height="48" viewBox="0 0 48 48" fill="none" xmlns="http://www.w3.org/2000/svg">
<path d="M12.9163 34.0143C12.9162 34.0143 12.9162 34.0144 12.9161 34.0145L12.9163 34.0143ZM12.9163 34.0143L12.9509 34.0489L12.9856 34.0836L12.9858 34.0834L23.3619 23.7071L23.3621 23.7069L23.9998 23.0692L23.9999 23.0693L24.6375 23.7069L24.6376 23.707L35.0141 34.0835M12.9163 34.0143L12.2785 33.3765C11.9072 33.7479 11.9072 34.3501 12.2785 34.7214C12.65 35.0929 13.2521 35.0929 13.6234 34.7214L23.2926 25.052L23.9997 24.3449L24.7068 25.052L34.3762 34.7214C34.7477 35.0929 35.3498 35.0929 35.7213 34.7214M35.0141 34.0835C35.0142 34.0835 35.0142 34.0835 35.0142 34.0836L35.0141 34.0835ZM35.0141 34.0835C34.9949 34.0641 34.9952 34.0333 35.014 34.0145L35.0486 34.049L35.0487 34.0491L35.7213 34.7214M35.7213 34.7214L35.0489 34.0489L35.0488 34.0488L35.0142 34.0143C35.0333 33.9952 35.0643 33.9952 35.0833 34.0143L24.7068 23.6378L24.7067 23.6377L24.0691 23.0001M35.7213 34.7214C36.0926 34.3499 36.0926 33.7477 35.7213 33.3765L26.0518 23.7069L26.0517 23.7069L24.0691 23.0001M24.0691 23.0001L24.707 22.3622L24.707 22.3622L35.0835 11.9857C35.064 12.005 35.0331 12.0044 35.0146 11.9859L35.0491 11.9514L35.0492 11.9513L35.0836 11.9856L35.7215 12.6235L35.0836 11.9856L24.0691 23.0001Z" fill="#3F3D56" stroke="#3F3D56" stroke-width="2"/>
</svg>
