<svg width="123" height="104" viewBox="0 0 123 104" fill="none" xmlns="http://www.w3.org/2000/svg">
<path fill-rule="evenodd" clip-rule="evenodd" d="M5.47 0H117.4C120.41 0 122.87 2.46 122.87 5.47V98.05C122.87 101.06 120.41 103.52 117.4 103.52H5.47C2.46 103.52 0 101.06 0 98.05V5.47C0 2.46 2.46 0 5.47 0ZM31.84 38.55L49.63 56.97L51.77 59.1L49.65 61.26L31.68 80.31L26.61 75.31L42.46 59.16L26.81 43.6L31.84 38.55ZM94.1 79.41H54.69V72.57H94.1V79.41ZM38.19 9.83C41.38 9.83 43.97 12.42 43.97 15.61C43.97 18.8 41.38 21.39 38.19 21.39C35 21.39 32.41 18.8 32.41 15.61C32.41 12.42 35 9.83 38.19 9.83ZM18.95 9.83C22.14 9.83 24.73 12.42 24.73 15.61C24.73 18.8 22.14 21.39 18.95 21.39C15.76 21.39 13.17 18.8 13.17 15.61C13.17 12.42 15.75 9.83 18.95 9.83ZM7.49 5.41H115.4C116.55 5.41 117.49 6.35 117.49 7.5V25.82H5.4V7.5C5.4 6.35 6.34 5.41 7.49 5.41Z" fill="#ABDFE2"/>
</svg>
