<svg width="156" height="115" viewBox="0 0 156 115" fill="none" xmlns="http://www.w3.org/2000/svg">
<g clip-path="url(#clip0_114_2)">
<path fill-rule="evenodd" clip-rule="evenodd" d="M9.7503 0H134.283C139.645 0 144.033 4.38694 144.033 9.74839V39.0572C142.106 38.7229 140.173 38.4202 138.235 38.1491V27.2946H138.277H6.19643V98.1474C6.19418 98.5022 6.26279 98.8538 6.39825 99.1818C6.5337 99.5097 6.73327 99.8073 6.98527 100.057C7.23514 100.309 7.5328 100.509 7.86079 100.644C8.18877 100.779 8.5405 100.848 8.89535 100.846H87.8953C88.4633 102.924 89.175 104.96 90.0571 106.946H9.7503C4.3878 106.946 0 102.559 0 97.1976V9.74839C0 4.38694 4.3878 0 9.7503 0ZM110.273 62.3683C114.817 63.8853 121.142 64.8229 128.168 64.8229C135.194 64.8229 141.519 63.8853 146.063 62.3683C150.052 61.0373 152.519 59.4255 152.519 57.8488C152.519 56.2733 150.052 54.6615 146.063 53.3303C141.519 51.8135 135.194 50.875 128.168 50.875C121.142 50.875 114.817 51.8135 110.273 53.3303C101.81 56.1545 101.578 59.4664 110.273 62.3683ZM144.389 69.7369C145.892 69.7369 147.112 70.9557 147.112 72.4587C147.112 73.9618 145.892 75.18 144.389 75.18C144.032 75.18 143.678 75.1097 143.347 74.9729C143.017 74.8362 142.717 74.6357 142.464 74.383C142.212 74.1303 142.011 73.8303 141.874 73.5002C141.738 73.17 141.667 72.8161 141.667 72.4587C141.667 70.9557 142.886 69.7369 144.389 69.7369ZM144.389 85.7597C145.892 85.7597 147.112 86.9788 147.112 88.4816C147.112 89.9846 145.892 91.2028 144.389 91.2028C144.032 91.2028 143.678 91.1325 143.347 90.9957C143.017 90.859 142.717 90.6585 142.464 90.4058C142.212 90.1531 142.011 89.8531 141.874 89.523C141.738 89.1928 141.667 88.8389 141.667 88.4816C141.667 86.9788 142.886 85.7597 144.389 85.7597ZM144.389 101.144C145.111 101.144 145.803 101.431 146.314 101.942C146.825 102.452 147.111 103.145 147.112 103.866C147.112 105.37 145.892 106.588 144.389 106.588C144.032 106.588 143.678 106.517 143.347 106.381C143.017 106.244 142.717 106.043 142.464 105.791C142.212 105.538 142.011 105.238 141.874 104.908C141.738 104.578 141.667 104.224 141.667 103.866C141.667 102.363 142.886 101.144 144.389 101.144ZM152.528 94.4894C151.107 95.4615 149.298 96.3181 147.158 97.0321C142.264 98.6662 135.546 99.6766 128.168 99.6766C120.789 99.6766 114.073 98.6662 109.177 97.0321C107.065 96.3269 105.266 95.4834 103.853 94.5272V104.893C104.167 106.364 106.561 107.845 110.273 109.084C114.817 110.6 121.142 111.538 128.168 111.538C135.194 111.538 141.519 110.601 146.063 109.084C148.818 108.164 150.846 107.111 151.838 106.029C152.657 105.135 152.528 104.546 152.528 103.479V94.4894ZM100.355 57.8488C100.355 54.6179 103.727 51.8772 109.177 50.0576C114.073 48.4245 120.79 47.4132 128.168 47.4132C135.546 47.4132 142.264 48.4245 147.159 50.0576C152.12 51.7136 155.359 54.1336 155.9 56.9916C155.965 57.1731 156 57.3687 156 57.5731V105.28C156 108.588 149.68 111.515 147.158 112.356C142.264 113.99 135.546 115 128.168 115C120.789 115 114.073 113.99 109.177 112.356C106.596 111.494 100.391 108.664 100.391 105.28V104.172C100.391 88.7313 100.355 73.2876 100.355 57.8488ZM103.853 89.5697C104.167 91.0392 106.561 92.5209 110.273 93.7595C114.817 95.2766 121.142 96.2148 128.168 96.2148C135.194 96.2148 141.519 95.2766 146.063 93.7595C150.052 92.4286 152.519 90.8168 152.519 89.241H152.538V79.166C151.117 80.1381 149.298 80.9938 147.158 81.7081C142.264 83.3422 135.546 84.3523 128.168 84.3523C120.789 84.3523 114.073 83.3422 109.177 81.7081C107.065 81.0035 105.266 80.16 103.853 79.2038V89.5697ZM103.853 74.2457C104.167 75.7158 106.561 77.1975 110.273 78.4361C114.817 79.9523 121.142 80.8908 128.168 80.8908C135.194 80.8908 141.519 79.9532 146.063 78.4361C150.052 77.1052 152.519 75.4934 152.519 73.9167H152.538V63.0981C151.117 64.0702 149.298 64.9268 147.158 65.6403C142.264 67.2743 135.546 68.2844 128.168 68.2844C120.79 68.2844 114.073 67.2743 109.177 65.6403C107.065 64.9357 105.266 64.0921 103.853 63.1359V74.2457ZM40.3327 70.0165C41.6544 71.1726 41.7876 73.1828 40.6313 74.504C39.475 75.8255 37.4647 75.9589 36.1429 74.8028L24.0496 64.2085C22.7282 63.0524 22.5947 61.0422 23.751 59.7207C23.8513 59.6062 23.9596 59.499 24.0752 59.4L36.1429 48.8285C37.4647 47.6724 39.475 47.8058 40.6313 49.1273C41.7876 50.4488 41.6544 52.4587 40.3327 53.6148L30.9712 61.8154L40.3327 70.0165ZM66.1352 74.8028C64.8137 75.9589 62.8031 75.8255 61.6468 74.504C60.4905 73.1828 60.624 71.1726 61.9454 70.0165L71.3069 61.8154L61.9454 53.6148C60.624 52.4587 60.4905 50.4488 61.6468 49.1273C62.8031 47.8058 64.8137 47.6724 66.1352 48.8285L78.2029 59.4C78.3169 59.4974 78.4257 59.6047 78.5271 59.7207C79.6834 61.0422 79.5499 63.0524 78.2285 64.2085L66.1352 74.8028ZM52.3276 44.4948C52.7475 42.7874 54.4726 41.7434 56.1804 42.1632C57.8882 42.5827 58.9324 44.3075 58.5125 46.0149L50.7195 77.3718C50.2999 79.0795 48.5748 80.1232 46.867 79.7037C45.1593 79.2839 44.1151 77.5591 44.5346 75.8517L52.3276 44.4948ZM125.003 10.9584C127.663 10.9584 129.819 13.1142 129.819 15.7733C129.819 18.4324 127.663 20.5873 125.003 20.5873C122.343 20.5873 120.187 18.4324 120.187 15.7733C120.187 13.1142 122.343 10.9584 125.003 10.9584ZM92.3624 10.9584C95.022 10.9584 97.1783 13.1142 97.1783 15.7733C97.1783 18.4324 95.022 20.5873 92.3624 20.5873C89.703 20.5873 87.5468 18.4324 87.5468 15.7733C87.5468 13.1142 89.703 10.9584 92.3624 10.9584ZM108.683 10.9584C111.343 10.9584 113.498 13.1142 113.498 15.7733C113.498 18.4324 111.343 20.5873 108.683 20.5873C106.024 20.5873 103.867 18.4324 103.867 15.7733C103.867 13.1142 106.024 10.9584 108.683 10.9584Z" fill="#ABDFE2"/>
</g>
<defs>
<clipPath id="clip0_114_2">
<rect width="156" height="115" fill="white"/>
</clipPath>
</defs>
</svg>
