<svg width="118" height="123" viewBox="0 0 118 123" fill="none" xmlns="http://www.w3.org/2000/svg">
<g clip-path="url(#clip0_146_84)">
<path d="M102.31 30.86L78 5.74V5.49H12.44V46L46.66 76.6L46.81 76.74L58.36 87.06L105 46.36V36.36L102.36 30.87L102.31 30.86ZM110.44 41.57C111.105 40.9671 111.972 40.6352 112.87 40.64C113.599 40.6487 114.311 40.8561 114.93 41.24C115.406 41.5256 115.831 41.8871 116.19 42.31C117.211 43.5026 117.806 45.0016 117.88 46.57V117.21C117.873 118.71 117.277 120.146 116.22 121.21C115.159 122.271 113.72 122.868 112.22 122.87H5.67002C4.17044 122.863 2.73365 122.267 1.67002 121.21C1.14253 120.686 0.724195 120.063 0.439251 119.376C0.154307 118.69 0.00841504 117.953 0.0100229 117.21V46.57C0.0850081 44.9765 0.694424 43.4548 1.74002 42.25C2.10874 41.8567 2.53328 41.5198 3.00002 41.25C3.60379 40.8835 4.29384 40.6834 5.00002 40.67C5.70833 40.6585 6.4042 40.8568 7.00002 41.24V2.74C6.99995 2.02018 7.28313 1.32925 7.78836 0.816534C8.29359 0.303818 8.98028 0.0105083 9.70002 0L78.9 0C79.3023 0.000353392 79.6995 0.090278 80.0628 0.263247C80.426 0.436216 80.7462 0.687889 81 1L109.65 30.59C110.149 31.0965 110.429 31.7789 110.43 32.49V33.28C110.43 33.39 110.43 33.5 110.43 33.62C110.43 33.74 110.43 33.84 110.43 33.95V41.58L110.44 41.57ZM56.52 92.74L44.9 82.36L5.49002 116.9V117.21C5.4728 117.252 5.4728 117.298 5.49002 117.34C5.53237 117.353 5.57768 117.353 5.62002 117.34H112.21C112.252 117.353 112.298 117.353 112.34 117.34C112.357 117.298 112.357 117.252 112.34 117.21V117L72.45 82L60.15 92.76C59.6508 93.2022 59.0069 93.4463 58.34 93.4463C57.6731 93.4463 57.0293 93.2022 56.53 92.76L56.52 92.74ZM40.79 78.74L5.49002 47.15V109.63L40.79 78.69V78.74ZM112.39 109.8V47.12L76.6 78.39L112.39 109.75V109.8Z" fill="#3F3D56"/>
<path fill-rule="evenodd" clip-rule="evenodd" d="M59.9399 15.4199C64.9359 15.4199 69.8196 16.9014 73.9736 19.677C78.1276 22.4526 81.3653 26.3977 83.2771 31.0133C85.189 35.629 85.6892 40.7079 84.7146 45.6079C83.7399 50.5079 81.3341 55.0088 77.8014 58.5414C74.2688 62.0741 69.7679 64.4799 64.8679 65.4546C59.968 66.4292 54.889 65.929 50.2733 64.0171C45.6577 62.1053 41.7126 58.8676 38.937 54.7136C36.1614 50.5596 34.6799 45.6759 34.6799 40.6799C34.6799 33.9806 37.3412 27.5556 42.0784 22.8184C46.8156 18.0812 53.2406 15.4199 59.9399 15.4199Z" fill="#FF6584"/>
<path fill-rule="evenodd" clip-rule="evenodd" d="M52.1 36.6601L56.57 40.8901L67.16 30.1701C68.03 29.2801 68.58 28.5601 69.66 29.6801L73.17 33.2701C74.32 34.4101 74.27 35.0801 73.17 36.1401L58.58 50.5001C56.29 52.7501 56.69 52.8901 54.36 50.5801L46.19 42.4601C46.0751 42.3592 45.9849 42.2333 45.9263 42.0921C45.8677 41.9509 45.8422 41.7981 45.8519 41.6455C45.8615 41.493 45.906 41.3446 45.982 41.2119C46.0579 41.0792 46.1633 40.9657 46.29 40.8801L50.36 36.6601C50.98 36.0101 51.47 36.0601 52.1 36.6601Z" fill="white"/>
</g>
<defs>
<clipPath id="clip0_146_84">
<rect width="117.88" height="122.88" fill="white"/>
</clipPath>
</defs>
</svg>
