<svg width="312" height="434" viewBox="0 0 312 434" fill="none" xmlns="http://www.w3.org/2000/svg">
<circle cx="107.5" cy="216.5" r="107.5" fill="#ABDFE2"/>
<path d="M64 348C56.2 348 48.6 346.3 41.2 342.9C33.8 339.3 27.7 334.2 22.9 327.6C18.3 321 16 313.2 16 304.2C16 297.8 17.5 292.6 20.5 288.6C23.7 284.6 28 282.6 33.4 282.6C37.6 282.6 40.8 283.9 43 286.5C45.4 289.1 46.6 292.2 46.6 295.8C46.6 299 45.5 301.7 43.3 303.9C41.3 306.1 38.3 307.1 34.3 306.9C33.9 309.3 33.7 311 33.7 312C33.7 320.2 36.8 326.9 43 332.1C49.4 337.3 56.5 339.9 64.3 339.9C76.7 339.9 86.3 334.4 93.1 323.4C99.9 312.2 103.3 298.4 103.3 282L103.6 228.9C103.6 193.5 102.6 171.8 100.6 163.8C99.4 159.4 96.1 156.2 90.7 154.2C85.5 152.2 79.6 151.2 73 151.2L61.3 151.8C59.5 151.8 58.1 151.4 57.1 150.6C56.1 149.8 55.6 148.8 55.6 147.6C55.6 146.6 56.1 145.7 57.1 144.9C58.3 144.1 59.9 143.7 61.9 143.7H110.8H159.7C161.7 143.7 163.2 144.1 164.2 144.9C165.4 145.7 166 146.7 166 147.9C166 149.1 165.4 150.1 164.2 150.9C163.2 151.5 161.8 151.8 160 151.8C158 151.8 156 151.7 154 151.5C152.2 151.3 150.4 151.2 148.6 151.2C142.6 151.2 137.8 152.2 134.2 154.2C130.6 156 128.2 159.2 127 163.8C125 172.2 124 195.5 124 233.7L124.3 280.5C124.3 293.5 121.8 305.1 116.8 315.3C112 325.5 105 333.5 95.8 339.3C86.8 345.1 76.2 348 64 348Z" fill="#3F3D56"/>
<path d="M159.4 145.2C160.733 145.2 161.733 145.467 162.4 146C163.2 146.533 163.6 147.2 163.6 148C163.6 148.8 163.133 149.467 162.2 150C161.4 150.533 160.333 150.733 159 150.6C156.333 150.333 154.4 150.2 153.2 150.2C145.2 150.2 141.2 152.267 141.2 156.4C141.2 156.8 141.333 157.533 141.6 158.6L169 251.6C169.4 252.933 170.067 253.6 171 253.6C171.8 253.6 172.4 252.933 172.8 251.6L199.6 168.2C199.867 167.133 200 166.533 200 166.4C200 165.6 199.733 164.533 199.2 163.2C198.8 161.733 198.467 160.667 198.2 160C197 156.267 195.467 153.733 193.6 152.4C191.733 150.933 189.067 150.2 185.6 150.2C184.533 150.2 182.533 150.333 179.6 150.6H178.8C177.6 150.6 176.667 150.333 176 149.8C175.333 149.267 175 148.6 175 147.8C175 147.133 175.333 146.533 176 146C176.8 145.467 177.867 145.2 179.2 145.2H234.4C235.733 145.2 236.733 145.467 237.4 146C238.2 146.533 238.6 147.2 238.6 148C238.6 148.8 238.133 149.467 237.2 150C236.4 150.533 235.333 150.733 234 150.6C233.2 150.467 232 150.4 230.4 150.4C226.133 150.4 222.467 151.2 219.4 152.8C216.467 154.4 215 156.533 215 159.2C215 159.467 215.133 160.133 215.4 161.2L242 251.6C242.4 252.933 243.067 253.6 244 253.6C244.8 253.6 245.4 252.933 245.8 251.6L273.4 164.8C274.067 162.533 274.4 160.733 274.4 159.4C274.4 156.467 273.333 154.2 271.2 152.6C269.067 151 265.933 150.2 261.8 150.2C260.733 150.2 259.133 150.333 257 150.6H256.4C255.467 150.6 254.667 150.333 254 149.8C253.467 149.267 253.2 148.6 253.2 147.8C253.2 147.133 253.533 146.533 254.2 146C254.867 145.467 255.733 145.2 256.8 145.2H304.4C305.6 145.2 306.467 145.467 307 146C307.667 146.533 308 147.2 308 148C308 148.8 307.667 149.467 307 150C306.333 150.533 305.4 150.733 304.2 150.6C303.4 150.467 302.133 150.4 300.4 150.4C296.533 150.4 293.067 151.267 290 153C286.933 154.733 284.8 157.467 283.6 161.2L246.4 276.8C245.467 279.333 243.733 280.6 241.2 280.6C239.867 280.6 238.6 280.267 237.4 279.6C236.2 278.8 235.4 277.867 235 276.8L206.6 186C206.2 184.667 205.533 184 204.6 184C203.667 184 203 184.667 202.6 186L173.4 276.8C172.467 279.333 170.733 280.6 168.2 280.6C166.867 280.6 165.6 280.267 164.4 279.6C163.2 278.8 162.4 277.867 162 276.8L125.2 160C124 156.4 122.067 153.867 119.4 152.4C116.733 150.933 113.267 150.2 109 150.2C107.667 150.2 105.533 150.333 102.6 150.6H101.8C100.6 150.6 99.6667 150.333 99 149.8C98.3333 149.267 98 148.6 98 147.8C98 147.133 98.3333 146.533 99 146C99.8 145.467 100.867 145.2 102.2 145.2H159.4Z" fill="#3F3D56"/>
</svg>
